<svg width="279" height="76" viewBox="0 0 279 76" fill="none" xmlns="http://www.w3.org/2000/svg">
<path d="M3 72.498V3H276V73.2H3V72.498Z" stroke="#FC4C49" stroke-width="5"/>
<path d="M24.9116 10.8544C28.2247 10.8544 31.0266 11.1262 33.3172 11.6697C35.6077 12.2133 37.4279 13.2642 38.7777 14.8223C40.1684 16.3443 40.8638 18.5366 40.8638 21.3994C40.8638 22.6676 40.6388 23.9722 40.1889 25.3129C39.7799 26.6175 39.2481 27.7589 38.5937 28.7373C37.9801 29.7157 37.4279 30.3499 36.9371 30.6398C36.3645 31.0021 35.0965 31.292 33.1331 31.5095C31.1698 31.6906 28.8587 31.7812 26.2 31.7812C25.2593 31.7812 23.8072 31.745 21.8439 31.6725V42H10.8V11.0175C15.0949 10.9088 19.7987 10.8544 24.9116 10.8544ZM29.5132 24.8237C29.9222 24.3527 30.1267 23.4105 30.1267 21.9973C30.1267 20.1492 29.6768 18.8446 28.7769 18.0837C27.918 17.3227 26.4046 16.9422 24.2367 16.9422C23.5004 16.9422 22.7028 16.9966 21.8439 17.1053V25.3673C22.2529 25.4035 23.0505 25.4217 24.2367 25.4217C27.3862 25.4217 29.1451 25.2223 29.5132 24.8237Z" fill="#1B1464"/>
<path d="M64.2408 35.2056H54.056L52.2153 42H40.9261L52.2153 11.0175H66.6337L77.4321 42H66.0815L64.2408 35.2056ZM59.0871 17.7032L55.4671 29.1722H62.7683L59.3325 17.7032H59.0871Z" fill="#1B1464"/>
<path d="M103.184 25.6391C105.966 25.929 107.949 26.7624 109.136 28.1394C110.322 29.4802 110.915 31.1109 110.915 33.0314C110.915 34.2272 110.71 35.3687 110.301 36.4558C109.892 37.5067 109.401 38.4126 108.829 39.1736C108.256 39.8983 107.765 40.3694 107.356 40.5868C105.72 41.529 100.73 42 92.3858 42H80.483V11.0175H94.9014C98.1736 11.0175 100.812 11.1805 102.816 11.5067C104.861 11.7966 106.518 12.4851 107.786 13.5722C109.054 14.623 109.688 16.2356 109.688 18.4098C109.688 20.2941 109.156 21.8161 108.093 22.9757C107.07 24.1352 105.434 24.9325 103.184 25.3673V25.6391ZM98.2759 17.5945C97.8668 17.2321 97.376 17.0147 96.8033 16.9422C96.2716 16.8335 95.4126 16.7791 94.2264 16.7791C93.0403 16.7791 92.1404 16.7973 91.5269 16.8335V23.4649H92.1404C92.3449 23.4649 93.2039 23.4649 94.7173 23.4649C96.2307 23.4649 97.2328 23.3743 97.7237 23.1931C98.0918 23.0481 98.419 22.6676 98.7053 22.0516C99.0326 21.4356 99.1962 20.7652 99.1962 20.0405C99.1962 18.9534 98.8894 18.138 98.2759 17.5945ZM99.3189 35.7492C99.6052 35.5318 99.8302 35.1332 99.9938 34.5534C100.198 33.9373 100.301 33.3213 100.301 32.7053C100.301 31.9443 100.178 31.2377 99.9324 30.5854C99.7279 29.8969 99.4416 29.4077 99.0735 29.1178C98.7053 28.7917 98.1736 28.5743 97.4782 28.4656C96.8238 28.3568 95.699 28.3025 94.1037 28.3025C93.0812 28.3025 92.2222 28.3206 91.5269 28.3568V36.2384C93.4493 36.2746 95.1672 36.2565 96.6806 36.184C98.1941 36.0753 99.0735 35.9304 99.3189 35.7492Z" fill="#1B1464"/>
<path d="M135.062 35.2056H124.877L123.037 42H111.747L123.037 11.0175H137.455L148.253 42H136.903L135.062 35.2056ZM129.908 17.7032L126.289 29.1722H133.59L130.154 17.7032H129.908Z" fill="#1B1464"/>
<path d="M183.147 42H171.551L169.465 34.1729C169.384 33.883 169.24 33.3938 169.036 32.7053C168.872 31.9805 168.668 31.4551 168.422 31.129C168.177 30.7666 167.829 30.5311 167.379 30.4223C166.234 30.4586 164.557 30.4767 162.348 30.4767V42H151.304V11.2892C156.254 10.9631 160.876 10.8 165.171 10.8C169.056 10.8 172.206 11.0899 174.619 11.6697C177.032 12.2133 178.832 13.1736 180.018 14.5506C181.245 15.8913 181.859 17.7394 181.859 20.0948C181.859 22.3053 181.286 24.0446 180.141 25.3129C178.996 26.545 177.155 27.2879 174.619 27.5415V27.8676C176.051 27.9764 177.237 28.3931 178.178 29.1178C179.159 29.8063 179.814 30.6941 180.141 31.7812L183.147 42ZM162.348 24.3345C162.716 24.3708 163.432 24.3889 164.496 24.3889C167.645 24.3889 169.486 24.1534 170.018 23.6823C170.508 23.2474 170.754 22.2328 170.754 20.6384C170.754 19.1527 170.304 18.138 169.404 17.5945C168.545 17.0509 167.113 16.7791 165.109 16.7791C164.659 16.7791 163.739 16.8154 162.348 16.8879V24.3345Z" fill="#1B1464"/>
<path d="M186.956 11.0175H198V42H186.956V11.0175Z" fill="#1B1464"/>
<path d="M10.8 49.9067H21.5674V53.1067H15.4702V55.88H20.6074V58.76H15.4702V61.8534H21.5415V65.1067H10.8V49.9067Z" fill="#1B1464"/>
<path d="M27.8807 58.9734V65.1067H23.5478V49.9067H27.9326L31.8503 56.04C32.4384 56.9467 32.8882 57.7112 33.1995 58.3334H33.2773V49.9067H37.5843V65.1067H33.1736L29.152 58.7067L27.9845 56.8934H27.9066L27.8807 58.9734Z" fill="#1B1464"/>
<path d="M47.6481 65.1067H42.9779V53.24H38.8007V49.9067H51.8253V53.24H47.6481V65.1067Z" fill="#1B1464"/>
<path d="M53.1895 49.9067H63.9568V53.1067H57.8597V55.88H62.9969V58.76H57.8597V61.8534H63.9309V65.1067H53.1895V49.9067Z" fill="#1B1464"/>
<path d="M79.4029 65.1067H74.4992L73.6171 61.2667C73.5825 61.1245 73.5219 60.8845 73.4354 60.5467C73.3663 60.1912 73.2798 59.9334 73.176 59.7734C73.0722 59.5956 72.9252 59.48 72.7349 59.4267C72.2506 59.4445 71.5414 59.4534 70.6074 59.4534V65.1067H65.9372V50.04C68.0301 49.88 69.9847 49.8 71.8009 49.8C73.4441 49.8 74.776 49.9423 75.7965 50.2267C76.817 50.4934 77.5781 50.9645 78.0797 51.64C78.5986 52.2978 78.8581 53.2045 78.8581 54.36C78.8581 55.4445 78.6159 56.2978 78.1316 56.92C77.6473 57.5245 76.8689 57.8889 75.7965 58.0134V58.1734C76.4019 58.2267 76.9035 58.4312 77.3013 58.7867C77.7165 59.1245 77.9932 59.56 78.1316 60.0934L79.4029 65.1067ZM70.6074 56.44C70.7631 56.4578 71.0658 56.4667 71.5155 56.4667C72.8474 56.4667 73.6257 56.3512 73.8506 56.12C74.0581 55.9067 74.1619 55.4089 74.1619 54.6267C74.1619 53.8978 73.9717 53.4 73.5911 53.1334C73.2279 52.8667 72.6225 52.7334 71.7749 52.7334C71.5847 52.7334 71.1955 52.7512 70.6074 52.7867V56.44Z" fill="#1B1464"/>
<path d="M86.9551 49.8267C88.3561 49.8267 89.541 49.96 90.5096 50.2267C91.4782 50.4934 92.2479 51.0089 92.8187 51.7734C93.4068 52.52 93.7009 53.5956 93.7009 55C93.7009 55.6223 93.6058 56.2623 93.4155 56.92C93.2425 57.56 93.0177 58.12 92.7409 58.6C92.4815 59.08 92.2479 59.3912 92.0404 59.5334C91.7982 59.7112 91.262 59.8534 90.4318 59.96C89.6015 60.0489 88.6242 60.0934 87.4999 60.0934C87.1021 60.0934 86.488 60.0756 85.6578 60.04V65.1067H80.9876V49.9067C82.8038 49.8534 84.7929 49.8267 86.9551 49.8267ZM88.901 56.68C89.0739 56.4489 89.1604 55.9867 89.1604 55.2934C89.1604 54.3867 88.9702 53.7467 88.5896 53.3734C88.2264 53 87.5864 52.8134 86.6697 52.8134C86.3583 52.8134 86.021 52.84 85.6578 52.8934V56.9467C85.8308 56.9645 86.1681 56.9734 86.6697 56.9734C88.0015 56.9734 88.7453 56.8756 88.901 56.68Z" fill="#1B1464"/>
<path d="M108.82 65.1067H103.916L103.034 61.2667C102.999 61.1245 102.939 60.8845 102.852 60.5467C102.783 60.1912 102.696 59.9334 102.593 59.7734C102.489 59.5956 102.342 59.48 102.152 59.4267C101.667 59.4445 100.958 59.4534 100.024 59.4534V65.1067H95.3539V50.04C97.4468 49.88 99.4014 49.8 101.218 49.8C102.861 49.8 104.193 49.9423 105.213 50.2267C106.234 50.4934 106.995 50.9645 107.496 51.64C108.015 52.2978 108.275 53.2045 108.275 54.36C108.275 55.4445 108.033 56.2978 107.548 56.92C107.064 57.5245 106.286 57.8889 105.213 58.0134V58.1734C105.819 58.2267 106.32 58.4312 106.718 58.7867C107.133 59.1245 107.41 59.56 107.548 60.0934L108.82 65.1067ZM100.024 56.44C100.18 56.4578 100.482 56.4667 100.932 56.4667C102.264 56.4667 103.042 56.3512 103.267 56.12C103.475 55.9067 103.579 55.4089 103.579 54.6267C103.579 53.8978 103.388 53.4 103.008 53.1334C102.645 52.8667 102.039 52.7334 101.192 52.7334C101.001 52.7334 100.612 52.7512 100.024 52.7867V56.44Z" fill="#1B1464"/>
<path d="M110.43 49.9067H115.1V65.1067H110.43V49.9067Z" fill="#1B1464"/>
<path d="M121.982 54.0134C121.982 54.3867 122.163 54.68 122.527 54.8934C122.907 55.1067 123.495 55.3378 124.291 55.5867C125.242 55.9067 126.021 56.2178 126.626 56.52C127.249 56.8223 127.785 57.2934 128.235 57.9334C128.702 58.5734 128.935 59.4089 128.935 60.44C128.935 63.7467 126.842 65.4 122.656 65.4C121.965 65.4 121.117 65.3378 120.114 65.2134C119.128 65.0889 118.228 64.9289 117.415 64.7334C117.45 64.36 117.519 63.8178 117.623 63.1067C117.744 62.3778 117.857 61.8356 117.96 61.48C118.566 61.5689 119.474 61.6756 120.685 61.8C121.913 61.9245 122.838 61.9867 123.461 61.9867C123.824 61.9867 124.04 61.96 124.109 61.9067C124.213 61.8356 124.291 61.72 124.343 61.56C124.412 61.3823 124.447 61.2312 124.447 61.1067C124.447 60.7512 124.282 60.4845 123.954 60.3067C123.625 60.1112 123.063 59.88 122.267 59.6134C121.316 59.3112 120.529 59 119.906 58.68C119.284 58.36 118.739 57.8623 118.272 57.1867C117.805 56.5112 117.571 55.6223 117.571 54.52C117.571 53.7378 117.744 52.9734 118.09 52.2267C118.436 51.4623 118.791 50.9467 119.154 50.68C119.431 50.4845 120.001 50.2978 120.866 50.12C121.731 49.9423 122.544 49.8534 123.305 49.8534C125.242 49.8534 126.825 50.04 128.053 50.4134C128.036 50.7689 127.975 51.2578 127.871 51.88C127.785 52.5023 127.69 53.0712 127.586 53.5867L126.989 53.56C124.741 53.4 123.305 53.32 122.682 53.32C122.423 53.32 122.276 53.3289 122.241 53.3467C122.172 53.3823 122.112 53.4623 122.06 53.5867C122.008 53.7112 121.982 53.8534 121.982 54.0134Z" fill="#1B1464"/>
<path d="M130.95 49.9067H141.717V53.1067H135.62V55.88H140.757V58.76H135.62V61.8534H141.691V65.1067H130.95V49.9067Z" fill="#1B1464"/>
<path d="M147.953 54.0134C147.953 54.3867 148.134 54.68 148.498 54.8934C148.878 55.1067 149.466 55.3378 150.262 55.5867C151.213 55.9067 151.992 56.2178 152.597 56.52C153.22 56.8223 153.756 57.2934 154.206 57.9334C154.673 58.5734 154.906 59.4089 154.906 60.44C154.906 63.7467 152.813 65.4 148.627 65.4C147.935 65.4 147.088 65.3378 146.085 65.2134C145.099 65.0889 144.199 64.9289 143.386 64.7334C143.421 64.36 143.49 63.8178 143.594 63.1067C143.715 62.3778 143.827 61.8356 143.931 61.48C144.537 61.5689 145.445 61.6756 146.655 61.8C147.883 61.9245 148.809 61.9867 149.432 61.9867C149.795 61.9867 150.011 61.96 150.08 61.9067C150.184 61.8356 150.262 61.72 150.314 61.56C150.383 61.3823 150.417 61.2312 150.417 61.1067C150.417 60.7512 150.253 60.4845 149.925 60.3067C149.596 60.1112 149.034 59.88 148.238 59.6134C147.287 59.3112 146.5 59 145.877 58.68C145.254 58.36 144.709 57.8623 144.242 57.1867C143.775 56.5112 143.542 55.6223 143.542 54.52C143.542 53.7378 143.715 52.9734 144.061 52.2267C144.407 51.4623 144.761 50.9467 145.125 50.68C145.401 50.4845 145.972 50.2978 146.837 50.12C147.702 49.9423 148.515 49.8534 149.276 49.8534C151.213 49.8534 152.796 50.04 154.024 50.4134C154.007 50.7689 153.946 51.2578 153.842 51.88C153.756 52.5023 153.661 53.0712 153.557 53.5867L152.96 53.56C150.712 53.4 149.276 53.32 148.653 53.32C148.394 53.32 148.247 53.3289 148.212 53.3467C148.143 53.3823 148.082 53.4623 148.031 53.5867C147.979 53.7112 147.953 53.8534 147.953 54.0134Z" fill="#1B1464"/>
<path d="M160.9 49.9067H165.571V61.5867H171.616V65.1067H160.9V49.9067Z" fill="#1B1464"/>
<path d="M178.085 65.1067H173.415V53.24H169.237V49.9067H182.262V53.24H178.085V65.1067Z" fill="#1B1464"/>
<path d="M188.945 49.9067C190.969 49.9067 192.621 50.1023 193.901 50.4934C195.198 50.8845 196.201 51.6223 196.91 52.7067C197.637 53.7912 198 55.3467 198 57.3734C198 59.5423 197.62 61.1956 196.858 62.3334C196.097 63.4534 195.077 64.2001 193.797 64.5734C192.517 64.9289 190.9 65.1067 188.945 65.1067H183.756V49.9067H188.945ZM192.422 61.48C192.629 61.2667 192.776 60.7156 192.863 59.8267C192.949 58.9378 192.993 58.12 192.993 57.3734C192.993 56.4312 192.923 55.6845 192.785 55.1334C192.664 54.5645 192.439 54.1112 192.11 53.7734C191.592 53.1867 190.701 52.8934 189.438 52.8934C189.213 52.8934 188.876 52.9112 188.426 52.9467V61.8C188.72 61.8356 189.179 61.8534 189.801 61.8534C190.441 61.8534 191.003 61.8267 191.488 61.7734C191.989 61.7023 192.301 61.6045 192.422 61.48Z" fill="#1B1464"/>
<path fill-rule="evenodd" clip-rule="evenodd" d="M210.783 61.1969L214.729 33.5781C214.877 32.5427 215.764 31.7737 216.809 31.7737H234.149C237.346 31.7737 239.802 34.6052 239.351 37.7702L237.851 48.2785C237.481 50.8672 235.264 52.7902 232.649 52.7902H220.388L219.19 61.1969H210.783ZM223.095 40.1801H229.379C230.019 40.1801 230.511 40.7477 230.419 41.3814L230.115 43.483C230.04 43.9999 229.597 44.3834 229.075 44.3834H222.8C222.161 44.3834 221.67 43.8187 221.759 43.1864L222.054 41.0848C222.127 40.566 222.571 40.1801 223.095 40.1801Z" fill="#FC4C49"/>
<path fill-rule="evenodd" clip-rule="evenodd" d="M247.463 52.7902H266.627L267.213 48.5869H251.62C250.977 48.5869 250.485 48.0155 250.581 47.3802L250.896 45.2786C250.973 44.7642 251.415 44.3836 251.935 44.3836H263.281C265.898 44.3836 268.116 42.4576 268.483 39.8664L268.781 37.7648C269.229 34.6015 266.774 31.7737 263.579 31.7737H248.966C246.352 31.7737 244.135 33.6959 243.765 36.2841L242.262 46.7923C241.809 49.9578 244.266 52.7902 247.463 52.7902ZM252.858 40.18H259.084C259.607 40.18 260.051 39.7949 260.124 39.2768L260.423 37.1752C260.513 36.5424 260.021 35.9767 259.382 35.9767H253.132C252.605 35.9767 252.159 36.3681 252.09 36.8914L251.816 38.993C251.734 39.6221 252.223 40.18 252.858 40.18Z" fill="#FC4C49"/>
<path d="M222.469 61.1177H221.293V57.9203H220.241V57.0221H223.521V57.9203H222.469V61.1177Z" fill="#1B1464"/>
<path d="M223.904 57.0221H225.08V61.1177H223.904V57.0221Z" fill="#1B1464"/>
<path d="M230.545 61.1177H229.447L229.362 58.8615C229.349 58.4161 229.334 58.0784 229.316 57.8484H229.296C229.244 58.0305 229.183 58.3131 229.114 58.6963L229.081 58.8759L228.63 61.1177H227.532L227.153 59.0987L227.088 58.7394C226.996 58.2939 226.933 57.9969 226.898 57.8484H226.879C226.861 58.0879 226.846 58.4783 226.833 59.0196C226.829 59.0531 226.826 59.1058 226.826 59.1777L226.768 61.1177H225.663L225.82 57.0221H227.689L228.009 58.7897L228.088 59.2639C228.122 59.1154 228.155 58.9502 228.186 58.7681L228.486 57.0221H230.394L230.545 61.1177Z" fill="#1B1464"/>
<path d="M233.539 58.955C233.835 58.9933 234.047 59.1034 234.173 59.2855C234.299 59.4627 234.362 59.6783 234.362 59.9321C234.362 60.0902 234.341 60.2411 234.297 60.3848C234.254 60.5237 234.201 60.6435 234.14 60.7441C234.079 60.8399 234.027 60.9021 233.983 60.9309C233.809 61.0554 233.278 61.1177 232.389 61.1177H231.121V57.0221H232.657C233.005 57.0221 233.286 57.0437 233.5 57.0868C233.718 57.1251 233.894 57.2161 234.029 57.3599C234.164 57.4988 234.232 57.7119 234.232 57.9993C234.232 58.2484 234.175 58.4496 234.062 58.6029C233.953 58.7562 233.779 58.8615 233.539 58.919V58.955ZM233.016 57.8916C232.973 57.8437 232.92 57.8149 232.859 57.8053C232.803 57.791 232.711 57.7838 232.585 57.7838C232.459 57.7838 232.363 57.7862 232.297 57.791V58.6675H232.363C232.385 58.6675 232.476 58.6675 232.637 58.6675C232.798 58.6675 232.905 58.6556 232.957 58.6316C232.997 58.6125 233.032 58.5622 233.062 58.4807C233.097 58.3993 233.114 58.3107 233.114 58.2149C233.114 58.0712 233.082 57.9634 233.016 57.8916ZM233.127 60.2914C233.158 60.2626 233.182 60.21 233.199 60.1333C233.221 60.0519 233.232 59.9705 233.232 59.889C233.232 59.7884 233.219 59.695 233.193 59.6088C233.171 59.5178 233.14 59.4531 233.101 59.4148C233.062 59.3717 233.005 59.343 232.931 59.3286C232.862 59.3142 232.742 59.307 232.572 59.307C232.463 59.307 232.372 59.3094 232.297 59.3142V60.3561C232.502 60.3608 232.685 60.3585 232.846 60.3489C233.008 60.3345 233.101 60.3153 233.127 60.2914Z" fill="#1B1464"/>
<path d="M234.822 57.0221H237.534V57.8844H235.998V58.6316H237.292V59.4076H235.998V60.2411H237.527V61.1177H234.822V57.0221Z" fill="#1B1464"/>
<path d="M241.424 61.1177H240.189L239.967 60.083C239.958 60.0447 239.943 59.98 239.921 59.889C239.904 59.7932 239.882 59.7238 239.856 59.6807C239.829 59.6328 239.792 59.6016 239.744 59.5872C239.623 59.592 239.444 59.5944 239.209 59.5944V61.1177H238.032V57.0581C238.56 57.015 239.052 56.9934 239.509 56.9934C239.923 56.9934 240.259 57.0317 240.516 57.1084C240.773 57.1802 240.964 57.3072 241.091 57.4892C241.221 57.6664 241.287 57.9107 241.287 58.2221C241.287 58.5143 241.226 58.7442 241.104 58.9118C240.982 59.0747 240.786 59.1729 240.516 59.2064V59.2495C240.668 59.2639 240.794 59.319 240.895 59.4148C240.999 59.5058 241.069 59.6232 241.104 59.7669L241.424 61.1177ZM239.209 58.7825C239.248 58.7873 239.324 58.7897 239.437 58.7897C239.773 58.7897 239.969 58.7586 240.025 58.6963C240.078 58.6388 240.104 58.5047 240.104 58.2939C240.104 58.0975 240.056 57.9634 239.96 57.8916C239.869 57.8197 239.716 57.7838 239.503 57.7838C239.455 57.7838 239.357 57.7886 239.209 57.7981V58.7825Z" fill="#1B1464"/>
<path d="M242.773 57.0221H245.485V57.8844H243.949V58.6316H245.243V59.4076H243.949V60.2411H245.478V61.1177H242.773V57.0221Z" fill="#1B1464"/>
<path d="M246.591 59.0196L245.716 57.0221H246.918L247.519 58.6316L248.14 57.0221H249.31L248.447 59.0196L249.369 61.1249H248.166L247.519 59.3861L246.853 61.1249H245.644L246.591 59.0196Z" fill="#1B1464"/>
<path d="M251.188 57.0006C251.541 57.0006 251.839 57.0365 252.083 57.1084C252.327 57.1802 252.521 57.3191 252.665 57.5251C252.813 57.7263 252.887 58.0161 252.887 58.3945C252.887 58.5622 252.863 58.7346 252.815 58.9118C252.772 59.0843 252.715 59.2352 252.645 59.3645C252.58 59.4938 252.521 59.5777 252.469 59.616C252.408 59.6639 252.273 59.7022 252.064 59.7309C251.855 59.7549 251.608 59.7669 251.325 59.7669C251.225 59.7669 251.07 59.7621 250.861 59.7525V61.1177H249.685V57.0221C250.142 57.0078 250.643 57.0006 251.188 57.0006ZM251.678 58.8472C251.722 58.7849 251.743 58.6604 251.743 58.4735C251.743 58.2293 251.696 58.0568 251.6 57.9562C251.508 57.8556 251.347 57.8053 251.116 57.8053C251.038 57.8053 250.953 57.8125 250.861 57.8269V58.919C250.905 58.9238 250.99 58.9262 251.116 58.9262C251.452 58.9262 251.639 58.8999 251.678 58.8472Z" fill="#1B1464"/>
<path d="M253.271 57.0221H255.983V57.8844H254.447V58.6316H255.741V59.4076H254.447V60.2411H255.976V61.1177H253.271V57.0221Z" fill="#1B1464"/>
<path d="M259.873 61.1177H258.638L258.416 60.083C258.407 60.0447 258.392 59.98 258.37 59.889C258.352 59.7932 258.331 59.7238 258.305 59.6807C258.278 59.6328 258.241 59.6016 258.193 59.5872C258.071 59.592 257.893 59.5944 257.658 59.5944V61.1177H256.481V57.0581C257.008 57.015 257.501 56.9934 257.958 56.9934C258.372 56.9934 258.707 57.0317 258.965 57.1084C259.222 57.1802 259.413 57.3072 259.54 57.4892C259.67 57.6664 259.736 57.9107 259.736 58.2221C259.736 58.5143 259.675 58.7442 259.553 58.9118C259.431 59.0747 259.235 59.1729 258.965 59.2064V59.2495C259.117 59.2639 259.243 59.319 259.344 59.4148C259.448 59.5058 259.518 59.6232 259.553 59.7669L259.873 61.1177ZM257.658 58.7825C257.697 58.7873 257.773 58.7897 257.886 58.7897C258.222 58.7897 258.418 58.7586 258.474 58.6963C258.527 58.6388 258.553 58.5047 258.553 58.2939C258.553 58.0975 258.505 57.9634 258.409 57.8916C258.318 57.8197 258.165 57.7838 257.952 57.7838C257.904 57.7838 257.806 57.7886 257.658 57.7981V58.7825Z" fill="#1B1464"/>
<path d="M262.226 61.1177H261.05V57.9203H259.998V57.0221H263.278V57.9203H262.226V61.1177Z" fill="#1B1464"/>
<path d="M264.726 58.1287C264.726 58.2293 264.772 58.3083 264.863 58.3658C264.959 58.4233 265.107 58.4855 265.307 58.5526C265.547 58.6388 265.743 58.7226 265.896 58.8041C266.052 58.8855 266.187 59.0124 266.301 59.1849C266.418 59.3573 266.477 59.5825 266.477 59.8603C266.477 60.7512 265.95 61.1967 264.896 61.1967C264.721 61.1967 264.508 61.18 264.255 61.1464C264.007 61.1129 263.781 61.0698 263.576 61.0171C263.584 60.9165 263.602 60.7704 263.628 60.5788C263.659 60.3824 263.687 60.2363 263.713 60.1405C263.865 60.1645 264.094 60.1932 264.399 60.2267C264.708 60.2603 264.941 60.277 265.098 60.277C265.19 60.277 265.244 60.2698 265.262 60.2555C265.288 60.2363 265.307 60.2052 265.321 60.1621C265.338 60.1142 265.347 60.0734 265.347 60.0399C265.347 59.9441 265.305 59.8723 265.222 59.8244C265.14 59.7717 264.998 59.7094 264.798 59.6375C264.558 59.5561 264.36 59.4723 264.203 59.3861C264.046 59.2998 263.909 59.1657 263.791 58.9837C263.674 58.8017 263.615 58.5622 263.615 58.2652C263.615 58.0544 263.659 57.8484 263.746 57.6473C263.833 57.4413 263.922 57.3024 264.014 57.2305C264.083 57.1778 264.227 57.1275 264.445 57.0796C264.663 57.0317 264.867 57.0078 265.059 57.0078C265.547 57.0078 265.946 57.0581 266.255 57.1587C266.251 57.2545 266.235 57.3862 266.209 57.5538C266.187 57.7215 266.163 57.8748 266.137 58.0137L265.987 58.0065C265.421 57.9634 265.059 57.9418 264.902 57.9418C264.837 57.9418 264.8 57.9442 264.791 57.949C264.774 57.9586 264.759 57.9802 264.745 58.0137C264.732 58.0472 264.726 58.0856 264.726 58.1287Z" fill="#1B1464"/>
<path d="M239.794 27.2649L223.288 10.8622L227.491 10.7571H252.276C252.555 10.7571 252.822 10.8678 253.019 11.0649L267.731 25.7764C268.393 26.4384 267.924 27.5703 266.988 27.5703H240.535C240.257 27.5703 239.991 27.4605 239.794 27.2649Z" fill="#1B1464"/>
<path d="M265.531 65.4001H207.634C207.052 65.4001 206.581 64.9276 206.583 64.346L206.685 31.7736V28.0036C206.685 27.7261 206.795 27.4598 206.99 27.2629L223.288 10.8622M223.288 10.8622L239.794 27.2649C239.991 27.4605 240.257 27.5703 240.535 27.5703H266.988C267.924 27.5703 268.393 26.4384 267.731 25.7764L253.019 11.0649C252.822 10.8678 252.555 10.7571 252.276 10.7571H227.491L223.288 10.8622Z" stroke="#1B1464" stroke-width="2.5"/>
<path d="M210.783 27.5701L222.65 15.7033C223.061 15.2929 223.726 15.2929 224.136 15.7033L234.209 25.7763C234.871 26.4382 234.402 27.5701 233.466 27.5701H217.524C216.587 27.5701 216.119 26.4382 216.781 25.7763L222.65 19.9066C223.061 19.4962 223.726 19.4962 224.136 19.9066L225.803 21.5729C226.465 22.2349 225.996 23.3668 225.06 23.3668H223.393" stroke="#1B1464" stroke-width="2.5"/>
</svg>
