<svg width="65" height="58" viewBox="0 0 65 58" fill="none" xmlns="http://www.w3.org/2000/svg">
<path fill-rule="evenodd" clip-rule="evenodd" d="M5.78333 52.1969L9.72886 24.5781C9.87677 23.5427 10.7635 22.7737 11.8094 22.7737H29.1492C32.3463 22.7737 34.8024 25.6052 34.3506 28.7702L32.8508 39.2785C32.4814 41.8672 30.2644 43.7902 27.6494 43.7902H15.388L14.1899 52.1969H5.78333ZM18.0949 31.1801H24.379C25.0192 31.1801 25.5107 31.7477 25.419 32.3814L25.1149 34.483C25.0402 34.9999 24.5972 35.3834 24.0749 35.3834H17.7998C17.1613 35.3834 16.6704 34.8187 16.7591 34.1864L17.0542 32.0848C17.1271 31.566 17.571 31.1801 18.0949 31.1801Z" fill="#FC4C49"/>
<path fill-rule="evenodd" clip-rule="evenodd" d="M42.4634 43.7902H61.6274L62.2128 39.5869H46.6198C45.9773 39.5869 45.4852 39.0155 45.5805 38.3802L45.8958 36.2786C45.973 35.7642 46.4148 35.3836 46.935 35.3836H58.281C60.8981 35.3836 63.1161 33.4576 63.4832 30.8664L63.7809 28.7648C64.2291 25.6015 61.7737 22.7737 58.5787 22.7737H43.9661C41.3516 22.7737 39.1349 24.6959 38.7648 27.2841L37.2622 37.7923C36.8095 40.9578 39.2657 43.7902 42.4634 43.7902ZM47.8578 31.18H54.084C54.6073 31.18 55.0509 30.7949 55.1244 30.2768L55.4227 28.1752C55.5125 27.5424 55.0214 26.9767 54.3823 26.9767H48.1323C47.6045 26.9767 47.1587 27.3681 47.0903 27.8914L46.8158 29.993C46.7337 30.6221 47.2234 31.18 47.8578 31.18Z" fill="#FC4C49"/>
<path d="M17.469 52.1177H16.2928V48.9203H15.2407V48.0221H18.5211V48.9203H17.469V52.1177Z" fill="#1B1464"/>
<path d="M18.9039 48.0221H20.0802V52.1177H18.9039V48.0221Z" fill="#1B1464"/>
<path d="M25.5446 52.1177H24.4468L24.3618 49.8615C24.3488 49.4161 24.3335 49.0784 24.3161 48.8484H24.2965C24.2442 49.0305 24.1832 49.3131 24.1135 49.6963L24.0808 49.8759L23.63 52.1177H22.5321L22.1531 50.0987L22.0878 49.7394C21.9963 49.2939 21.9331 48.9969 21.8983 48.8484H21.8787C21.8612 49.0879 21.846 49.4783 21.8329 50.0196C21.8286 50.0531 21.8264 50.1058 21.8264 50.1777L21.7676 52.1177H20.6632L20.82 48.0221H22.689L23.0092 49.7897L23.0876 50.2639C23.1224 50.1154 23.1551 49.9502 23.1856 49.7681L23.4862 48.0221H25.3943L25.5446 52.1177Z" fill="#1B1464"/>
<path d="M28.5391 49.955C28.8353 49.9933 29.0466 50.1034 29.1729 50.2855C29.2993 50.4627 29.3624 50.6783 29.3624 50.9321C29.3624 51.0902 29.3407 51.2411 29.2971 51.3848C29.2535 51.5237 29.2012 51.6435 29.1403 51.7441C29.0793 51.8399 29.027 51.9021 28.9834 51.9309C28.8092 52.0554 28.2777 52.1177 27.389 52.1177H26.1212V48.0221H27.6569C28.0054 48.0221 28.2864 48.0437 28.4999 48.0868C28.7177 48.1251 28.8941 48.2161 29.0292 48.3599C29.1642 48.4988 29.2317 48.7119 29.2317 48.9993C29.2317 49.2484 29.1751 49.4496 29.0618 49.6029C28.9529 49.7562 28.7787 49.8615 28.5391 49.919V49.955ZM28.0163 48.8916C27.9727 48.8437 27.9205 48.8149 27.8595 48.8053C27.8028 48.791 27.7113 48.7838 27.585 48.7838C27.4587 48.7838 27.3628 48.7862 27.2975 48.791V49.6675H27.3628C27.3846 49.6675 27.4761 49.6675 27.6373 49.6675C27.7985 49.6675 27.9052 49.6556 27.9575 49.6316C27.9967 49.6125 28.0315 49.5622 28.062 49.4807C28.0969 49.3993 28.1143 49.3107 28.1143 49.2149C28.1143 49.0712 28.0816 48.9634 28.0163 48.8916ZM28.1274 51.2914C28.1579 51.2626 28.1818 51.21 28.1993 51.1333C28.221 51.0519 28.2319 50.9705 28.2319 50.889C28.2319 50.7884 28.2189 50.695 28.1927 50.6088C28.1709 50.5178 28.1405 50.4531 28.1012 50.4148C28.062 50.3717 28.0054 50.343 27.9313 50.3286C27.8616 50.3142 27.7418 50.307 27.5719 50.307C27.463 50.307 27.3715 50.3094 27.2975 50.3142V51.3561C27.5022 51.3608 27.6852 51.3585 27.8464 51.3489C28.0076 51.3345 28.1012 51.3153 28.1274 51.2914Z" fill="#1B1464"/>
<path d="M29.8218 48.0221H32.5336V48.8844H30.998V49.6316H32.2919V50.4076H30.998V51.2411H32.5271V52.1177H29.8218V48.0221Z" fill="#1B1464"/>
<path d="M36.4239 52.1177H35.1889L34.9667 51.083C34.958 51.0447 34.9427 50.98 34.9209 50.889C34.9035 50.7932 34.8817 50.7238 34.8556 50.6807C34.8294 50.6328 34.7924 50.6016 34.7445 50.5872C34.6225 50.592 34.4439 50.5944 34.2087 50.5944V52.1177H33.0324V48.0581C33.5595 48.015 34.0518 47.9934 34.5092 47.9934C34.9231 47.9934 35.2586 48.0317 35.5156 48.1084C35.7726 48.1802 35.9643 48.3072 36.0906 48.4892C36.2213 48.6664 36.2867 48.9107 36.2867 49.2221C36.2867 49.5143 36.2257 49.7442 36.1037 49.9118C35.9817 50.0747 35.7857 50.1729 35.5156 50.2064V50.2495C35.6681 50.2639 35.7944 50.319 35.8946 50.4148C35.9992 50.5058 36.0689 50.6232 36.1037 50.7669L36.4239 52.1177ZM34.2087 49.7825C34.2479 49.7873 34.3241 49.7897 34.4374 49.7897C34.7728 49.7897 34.9689 49.7586 35.0255 49.6963C35.0778 49.6388 35.1039 49.5047 35.1039 49.2939C35.1039 49.0975 35.056 48.9634 34.9601 48.8916C34.8687 48.8197 34.7162 48.7838 34.5027 48.7838C34.4548 48.7838 34.3568 48.7886 34.2087 48.7981V49.7825Z" fill="#1B1464"/>
<path d="M37.7731 48.0221H40.485V48.8844H38.9493V49.6316H40.2432V50.4076H38.9493V51.2411H40.4785V52.1177H37.7731V48.0221Z" fill="#1B1464"/>
<path d="M41.5915 50.0196L40.7159 48.0221H41.9182L42.5194 49.6316L43.1402 48.0221H44.3099L43.4473 50.0196L44.3687 52.1249H43.1664L42.5194 50.3861L41.8529 52.1249H40.644L41.5915 50.0196Z" fill="#1B1464"/>
<path d="M46.188 48.0006C46.5409 48.0006 46.8393 48.0365 47.0833 48.1084C47.3272 48.1802 47.5211 48.3191 47.6649 48.5251C47.813 48.7263 47.887 49.0161 47.887 49.3945C47.887 49.5622 47.8631 49.7346 47.8151 49.9118C47.7716 50.0843 47.715 50.2352 47.6452 50.3645C47.5799 50.4938 47.5211 50.5777 47.4688 50.616C47.4078 50.6639 47.2728 50.7022 47.0637 50.7309C46.8546 50.7549 46.6084 50.7669 46.3252 50.7669C46.225 50.7669 46.0704 50.7621 45.8613 50.7525V52.1177H44.685V48.0221C45.1425 48.0078 45.6435 48.0006 46.188 48.0006ZM46.6781 49.8472C46.7217 49.7849 46.7435 49.6604 46.7435 49.4735C46.7435 49.2293 46.6955 49.0568 46.5997 48.9562C46.5082 48.8556 46.347 48.8053 46.1161 48.8053C46.0377 48.8053 45.9528 48.8125 45.8613 48.8269V49.919C45.9049 49.9238 45.9898 49.9262 46.1161 49.9262C46.4516 49.9262 46.6389 49.8999 46.6781 49.8472Z" fill="#1B1464"/>
<path d="M48.2707 48.0221H50.9826V48.8844H49.4469V49.6316H50.7408V50.4076H49.4469V51.2411H50.976V52.1177H48.2707V48.0221Z" fill="#1B1464"/>
<path d="M54.8728 52.1177H53.6378L53.4156 51.083C53.4069 51.0447 53.3917 50.98 53.3699 50.889C53.3524 50.7932 53.3307 50.7238 53.3045 50.6807C53.2784 50.6328 53.2414 50.6016 53.1934 50.5872C53.0715 50.592 52.8928 50.5944 52.6576 50.5944V52.1177H51.4813V48.0581C52.0085 48.015 52.5008 47.9934 52.9582 47.9934C53.372 47.9934 53.7075 48.0317 53.9645 48.1084C54.2216 48.1802 54.4132 48.3072 54.5396 48.4892C54.6703 48.6664 54.7356 48.9107 54.7356 49.2221C54.7356 49.5143 54.6746 49.7442 54.5526 49.9118C54.4307 50.0747 54.2346 50.1729 53.9645 50.2064V50.2495C54.117 50.2639 54.2433 50.319 54.3435 50.4148C54.4481 50.5058 54.5178 50.6232 54.5526 50.7669L54.8728 52.1177ZM52.6576 49.7825C52.6968 49.7873 52.773 49.7897 52.8863 49.7897C53.2217 49.7897 53.4178 49.7586 53.4744 49.6963C53.5267 49.6388 53.5528 49.5047 53.5528 49.2939C53.5528 49.0975 53.5049 48.9634 53.4091 48.8916C53.3176 48.8197 53.1651 48.7838 52.9517 48.7838C52.9037 48.7838 52.8057 48.7886 52.6576 48.7981V49.7825Z" fill="#1B1464"/>
<path d="M57.2258 52.1177H56.0496V48.9203H54.9975V48.0221H58.2779V48.9203H57.2258V52.1177Z" fill="#1B1464"/>
<path d="M59.7258 49.1287C59.7258 49.2293 59.7716 49.3083 59.8631 49.3658C59.9589 49.4233 60.107 49.4855 60.3074 49.5526C60.547 49.6388 60.7431 49.7226 60.8956 49.8041C61.0524 49.8855 61.1874 50.0124 61.3007 50.1849C61.4183 50.3573 61.4771 50.5825 61.4771 50.8603C61.4771 51.7512 60.95 52.1967 59.8957 52.1967C59.7215 52.1967 59.508 52.18 59.2554 52.1464C59.007 52.1129 58.7805 52.0698 58.5757 52.0171C58.5845 51.9165 58.6019 51.7704 58.628 51.5788C58.6585 51.3824 58.6868 51.2363 58.713 51.1405C58.8655 51.1645 59.0942 51.1932 59.3991 51.2267C59.7084 51.2603 59.9415 51.277 60.0983 51.277C60.1898 51.277 60.2443 51.2698 60.2617 51.2555C60.2878 51.2363 60.3074 51.2052 60.3205 51.1621C60.3379 51.1142 60.3466 51.0734 60.3466 51.0399C60.3466 50.9441 60.3053 50.8723 60.2225 50.8244C60.1397 50.7717 59.9981 50.7094 59.7977 50.6375C59.5581 50.5561 59.3599 50.4723 59.2031 50.3861C59.0462 50.2998 58.909 50.1657 58.7914 49.9837C58.6738 49.8017 58.615 49.5622 58.615 49.2652C58.615 49.0544 58.6585 48.8484 58.7456 48.6473C58.8328 48.4413 58.9221 48.3024 59.0136 48.2305C59.0833 48.1778 59.227 48.1275 59.4449 48.0796C59.6627 48.0317 59.8674 48.0078 60.0591 48.0078C60.547 48.0078 60.9457 48.0581 61.255 48.1587C61.2506 48.2545 61.2354 48.3862 61.2092 48.5538C61.1874 48.7215 61.1635 48.8748 61.1373 49.0137L60.987 49.0065C60.4207 48.9634 60.0591 48.9418 59.9023 48.9418C59.8369 48.9418 59.7999 48.9442 59.7912 48.949C59.7738 48.9586 59.7585 48.9802 59.7455 49.0137C59.7324 49.0472 59.7258 49.0856 59.7258 49.1287Z" fill="#1B1464"/>
<path d="M34.794 18.2649L18.2881 1.86216L22.4914 1.75708H47.276C47.5547 1.75708 47.822 1.86779 48.0191 2.06486L62.7306 16.7764C63.3926 17.4384 62.9238 18.5703 61.9876 18.5703H35.5347C35.2571 18.5703 34.9909 18.4605 34.794 18.2649Z" fill="#1B1464"/>
<path d="M60.5314 56.4001H2.63408C2.05243 56.4001 1.58143 55.9276 1.58325 55.346L1.68504 22.7736V19.0036C1.68504 18.7261 1.79484 18.4598 1.99048 18.2629L18.2881 1.86216M18.2881 1.86216L34.794 18.2649C34.9909 18.4605 35.2571 18.5703 35.5347 18.5703H61.9876C62.9238 18.5703 63.3926 17.4384 62.7306 16.7764L48.0191 2.06486C47.822 1.86779 47.5547 1.75708 47.276 1.75708H22.4914L18.2881 1.86216Z" stroke="#1B1464" stroke-width="2.10166"/>
<path d="M5.78333 18.5701L17.6502 6.70325C18.0606 6.29288 18.7259 6.29288 19.1363 6.70326L29.2093 16.7763C29.8713 17.4382 29.4024 18.5701 28.4663 18.5701H12.5236C11.5874 18.5701 11.1185 17.4382 11.7805 16.7763L17.6502 10.9066C18.0606 10.4962 18.7259 10.4962 19.1363 10.9066L20.8027 12.5729C21.4647 13.2349 20.9958 14.3668 20.0596 14.3668H18.3933" stroke="#1B1464" stroke-width="2.10166"/>
</svg>
